<?xml version="1.0" encoding="UTF-8" standalone="no"?>
<svg width="340px" height="40px" viewBox="0 0 340 40" version="1.1" xmlns="http://www.w3.org/2000/svg" xmlns:xlink="http://www.w3.org/1999/xlink">
    <!-- Generator: Sketch 3.8.3 (29802) - http://www.bohemiancoding.com/sketch -->
    <title>name</title>
    <desc>Created with Sketch.</desc>
    <defs></defs>
    <g id="loading_page" stroke="none" stroke-width="1" fill="none" fill-rule="evenodd">
        <g id="loading_1" transform="translate(-550.000000, -460.000000)" fill="#FFFFFF">
            <g id="name" transform="translate(550.000000, 460.000000)">
                <path d="M15,11.44 L16.632,11.44 L20.856,26.488 L20.904,26.488 L25.2,11.44 L27.216,11.44 L31.512,26.488 L31.56,26.488 L35.784,11.44 L37.416,11.44 L32.472,28.432 L30.528,28.432 L26.232,13.312 L26.184,13.312 L21.888,28.432 L19.944,28.432 L15,11.44 Z M49.4826666,26.344 C48.9226638,27.1920042 48.2306707,27.7999982 47.4066666,28.168 C46.5826625,28.5360018 45.6746716,28.72 44.6826666,28.72 C43.8346624,28.72 43.0666701,28.5760014 42.3786666,28.288 C41.6906632,27.9999986 41.0986691,27.5960026 40.6026666,27.076 C40.1066641,26.5559974 39.7266679,25.9400036 39.4626666,25.228 C39.1986653,24.5159964 39.0666666,23.7280043 39.0666666,22.864 C39.0666666,22.0319958 39.2026653,21.2640035 39.4746666,20.56 C39.746668,19.8559965 40.1306641,19.2440026 40.6266666,18.724 C41.1226691,18.2039974 41.7066633,17.7960015 42.3786666,17.5 C43.05067,17.2039985 43.7946625,17.056 44.6106666,17.056 C45.4586709,17.056 46.2066634,17.2039985 46.8546666,17.5 C47.5026699,17.7960015 48.0466644,18.1879976 48.4866666,18.676 C48.9266688,19.1640024 49.2586655,19.7199969 49.4826666,20.344 C49.7066677,20.9680031 49.8186666,21.5999968 49.8186666,22.24 L49.8186666,23.248 L40.5066666,23.248 C40.5066666,23.5520015 40.566666,23.9399976 40.6866666,24.412 C40.8066672,24.8840024 41.026665,25.3439978 41.3466666,25.792 C41.6666682,26.2400022 42.0946639,26.6239984 42.6306666,26.944 C43.1666693,27.2640016 43.8586624,27.424 44.7066666,27.424 C45.4426703,27.424 46.1546632,27.2480018 46.8426666,26.896 C47.5306701,26.5439982 48.0586648,26.064003 48.4266666,25.456 L49.4826666,26.344 Z M48.3786666,21.952 C48.3786666,21.4559975 48.2786676,20.9920022 48.0786666,20.56 C47.8786656,20.1279978 47.6066683,19.7480016 47.2626666,19.42 C46.9186649,19.0919984 46.510669,18.832001 46.0386666,18.64 C45.5666643,18.447999 45.0666693,18.352 44.5386666,18.352 C43.7546627,18.352 43.1026692,18.5119984 42.5826666,18.832 C42.062664,19.1520016 41.6506681,19.5199979 41.3466666,19.936 C41.0426651,20.3520021 40.8266673,20.755998 40.6986666,21.148 C40.570666,21.540002 40.5066666,21.8079993 40.5066666,21.952 L48.3786666,21.952 Z M53.3893333,10.288 L54.8293333,10.288 L54.8293333,19.288 L54.8773333,19.288 C55.1013344,18.9039981 55.3813316,18.5720014 55.7173333,18.292 C56.0533349,18.0119986 56.4173313,17.7800009 56.8093333,17.596 C57.2013352,17.4119991 57.6133311,17.2760004 58.0453333,17.188 C58.4773354,17.0999996 58.9013312,17.056 59.3173333,17.056 C60.1653375,17.056 60.9453297,17.1999986 61.6573333,17.488 C62.3693368,17.7760014 62.9853307,18.1799974 63.5053333,18.7 C64.0253359,19.2200026 64.4293318,19.8359964 64.7173333,20.548 C65.0053347,21.2600036 65.1493333,22.0399958 65.1493333,22.888 C65.1493333,23.7360042 65.0053347,24.5159964 64.7173333,25.228 C64.4293318,25.9400036 64.0253359,26.5559974 63.5053333,27.076 C62.9853307,27.5960026 62.3693368,27.9999986 61.6573333,28.288 C60.9453297,28.5760014 60.1653375,28.72 59.3173333,28.72 C58.9013312,28.72 58.4773354,28.6760004 58.0453333,28.588 C57.6133311,28.4999996 57.2013352,28.3640009 56.8093333,28.18 C56.4173313,27.9959991 56.0533349,27.7640014 55.7173333,27.484 C55.3813316,27.2039986 55.1013344,26.8720019 54.8773333,26.488 L54.8293333,26.488 L54.8293333,28.432 L53.3893333,28.432 L53.3893333,10.288 Z M54.6853333,22.888 C54.6853333,23.5120031 54.8053321,24.0999972 55.0453333,24.652 C55.2853345,25.2040028 55.6133312,25.683998 56.0293333,26.092 C56.4453353,26.500002 56.9333305,26.8239988 57.4933333,27.064 C58.0533361,27.3040012 58.66133,27.424 59.3173333,27.424 C59.9893366,27.424 60.5973305,27.3040012 61.1413333,27.064 C61.685336,26.8239988 62.1493313,26.500002 62.5333333,26.092 C62.9173352,25.683998 63.2093323,25.2040028 63.4093333,24.652 C63.6093343,24.0999972 63.7093333,23.5120031 63.7093333,22.888 C63.7093333,22.2639969 63.6093343,21.6760028 63.4093333,21.124 C63.2093323,20.5719972 62.9173352,20.092002 62.5333333,19.684 C62.1493313,19.275998 61.685336,18.9520012 61.1413333,18.712 C60.5973305,18.4719988 59.9893366,18.352 59.3173333,18.352 C58.66133,18.352 58.0533361,18.4719988 57.4933333,18.712 C56.9333305,18.9520012 56.4453353,19.275998 56.0293333,19.684 C55.6133312,20.092002 55.2853345,20.5719972 55.0453333,21.124 C54.8053321,21.6760028 54.6853333,22.2639969 54.6853333,22.888 L54.6853333,22.888 Z M81.5546665,11.44 L83.1866665,11.44 L90.3386665,28.432 L88.5626665,28.432 L86.7146665,23.92 L77.7146665,23.92 L75.7946665,28.432 L74.1386665,28.432 L81.5546665,11.44 Z M82.2986665,13.168 L78.3386665,22.48 L86.1386665,22.48 L82.2986665,13.168 Z M92.7333331,17.344 L94.1733331,17.344 L94.1733331,19.288 L94.2213331,19.288 C94.4453343,18.9039981 94.7253315,18.5720014 95.0613331,18.292 C95.3973348,18.0119986 95.7613312,17.7800009 96.1533331,17.596 C96.5453351,17.4119991 96.957331,17.2760004 97.3893331,17.188 C97.8213353,17.0999996 98.2453311,17.056 98.6613331,17.056 C99.5093374,17.056 100.28933,17.1999986 101.001333,17.488 C101.713337,17.7760014 102.329331,18.1799974 102.849333,18.7 C103.369336,19.2200026 103.773332,19.8359964 104.061333,20.548 C104.349335,21.2600036 104.493333,22.0399958 104.493333,22.888 C104.493333,23.7360042 104.349335,24.5159964 104.061333,25.228 C103.773332,25.9400036 103.369336,26.5559974 102.849333,27.076 C102.329331,27.5960026 101.713337,27.9999986 101.001333,28.288 C100.28933,28.5760014 99.5093374,28.72 98.6613331,28.72 C98.2453311,28.72 97.8213353,28.6760004 97.3893331,28.588 C96.957331,28.4999996 96.5453351,28.3640009 96.1533331,28.18 C95.7613312,27.9959991 95.3973348,27.7640014 95.0613331,27.484 C94.7253315,27.2039986 94.4453343,26.8720019 94.2213331,26.488 L94.1733331,26.488 L94.1733331,33.904 L92.7333331,33.904 L92.7333331,17.344 Z M94.0293331,22.888 C94.0293331,23.5120031 94.1493319,24.0999972 94.3893331,24.652 C94.6293343,25.2040028 94.9573311,25.683998 95.3733331,26.092 C95.7893352,26.500002 96.2773303,26.8239988 96.8373331,27.064 C97.3973359,27.3040012 98.0053299,27.424 98.6613331,27.424 C99.3333365,27.424 99.9413304,27.3040012 100.485333,27.064 C101.029336,26.8239988 101.493331,26.500002 101.877333,26.092 C102.261335,25.683998 102.553332,25.2040028 102.753333,24.652 C102.953334,24.0999972 103.053333,23.5120031 103.053333,22.888 C103.053333,22.2639969 102.953334,21.6760028 102.753333,21.124 C102.553332,20.5719972 102.261335,20.092002 101.877333,19.684 C101.493331,19.275998 101.029336,18.9520012 100.485333,18.712 C99.9413304,18.4719988 99.3333365,18.352 98.6613331,18.352 C98.0053299,18.352 97.3973359,18.4719988 96.8373331,18.712 C96.2773303,18.9520012 95.7893352,19.275998 95.3733331,19.684 C94.9573311,20.092002 94.6293343,20.5719972 94.3893331,21.124 C94.1493319,21.6760028 94.0293331,22.2639969 94.0293331,22.888 L94.0293331,22.888 Z M108.064,17.344 L109.504,17.344 L109.504,19.288 L109.552,19.288 C109.776001,18.9039981 110.055998,18.5720014 110.392,18.292 C110.728001,18.0119986 111.091998,17.7800009 111.484,17.596 C111.876002,17.4119991 112.287998,17.2760004 112.72,17.188 C113.152002,17.0999996 113.575998,17.056 113.992,17.056 C114.840004,17.056 115.619996,17.1999986 116.332,17.488 C117.044003,17.7760014 117.659997,18.1799974 118.18,18.7 C118.700002,19.2200026 119.103998,19.8359964 119.392,20.548 C119.680001,21.2600036 119.824,22.0399958 119.824,22.888 C119.824,23.7360042 119.680001,24.5159964 119.392,25.228 C119.103998,25.9400036 118.700002,26.5559974 118.18,27.076 C117.659997,27.5960026 117.044003,27.9999986 116.332,28.288 C115.619996,28.5760014 114.840004,28.72 113.992,28.72 C113.575998,28.72 113.152002,28.6760004 112.72,28.588 C112.287998,28.4999996 111.876002,28.3640009 111.484,28.18 C111.091998,27.9959991 110.728001,27.7640014 110.392,27.484 C110.055998,27.2039986 109.776001,26.8720019 109.552,26.488 L109.504,26.488 L109.504,33.904 L108.064,33.904 L108.064,17.344 Z M109.36,22.888 C109.36,23.5120031 109.479999,24.0999972 109.72,24.652 C109.960001,25.2040028 110.287998,25.683998 110.704,26.092 C111.120002,26.500002 111.607997,26.8239988 112.168,27.064 C112.728003,27.3040012 113.335996,27.424 113.992,27.424 C114.664003,27.424 115.271997,27.3040012 115.816,27.064 C116.360002,26.8239988 116.823998,26.500002 117.208,26.092 C117.592002,25.683998 117.883999,25.2040028 118.084,24.652 C118.284001,24.0999972 118.384,23.5120031 118.384,22.888 C118.384,22.2639969 118.284001,21.6760028 118.084,21.124 C117.883999,20.5719972 117.592002,20.092002 117.208,19.684 C116.823998,19.275998 116.360002,18.9520012 115.816,18.712 C115.271997,18.4719988 114.664003,18.352 113.992,18.352 C113.335996,18.352 112.728003,18.4719988 112.168,18.712 C111.607997,18.9520012 111.120002,19.275998 110.704,19.684 C110.287998,20.092002 109.960001,20.5719972 109.72,21.124 C109.479999,21.6760028 109.36,22.2639969 109.36,22.888 L109.36,22.888 Z M124.114666,11.44 L129.010666,11.44 C129.65067,11.44 130.298663,11.4919995 130.954666,11.596 C131.61067,11.7000005 132.198664,11.9159984 132.718666,12.244 C133.238669,12.5720016 133.662665,13.0279971 133.990666,13.612 C134.318668,14.1960029 134.482666,14.9679952 134.482666,15.928 C134.482666,16.7920043 134.226669,17.5439968 133.714666,18.184 C133.202664,18.8240032 132.442671,19.247999 131.434666,19.456 L131.434666,19.504 C131.994669,19.5520002 132.506664,19.6839989 132.970666,19.9 C133.434669,20.1160011 133.834665,20.4039982 134.170666,20.764 C134.506668,21.1240018 134.766665,21.5519975 134.950666,22.048 C135.134667,22.5440025 135.226666,23.087997 135.226666,23.68 C135.226666,24.6560049 135.038668,25.4519969 134.662666,26.068 C134.286665,26.6840031 133.814669,27.1679982 133.246666,27.52 C132.678664,27.8720018 132.06267,28.1119994 131.398666,28.24 C130.734663,28.3680006 130.114669,28.432 129.538666,28.432 L124.114666,28.432 L124.114666,11.44 Z M125.698666,18.784 L128.986666,18.784 C129.80267,18.784 130.466664,18.684001 130.978666,18.484 C131.490669,18.283999 131.890665,18.0400014 132.178666,17.752 C132.466668,17.4639986 132.658666,17.1560016 132.754666,16.828 C132.850667,16.4999984 132.898666,16.2000014 132.898666,15.928 C132.898666,15.335997 132.798667,14.844002 132.598666,14.452 C132.398665,14.059998 132.130668,13.7480012 131.794666,13.516 C131.458665,13.2839988 131.066669,13.1200005 130.618666,13.024 C130.170664,12.9279995 129.698669,12.88 129.202666,12.88 L125.698666,12.88 L125.698666,18.784 Z M125.698666,26.992 L129.322666,26.992 C130.250671,26.992 130.998664,26.8800011 131.566666,26.656 C132.134669,26.4319989 132.570665,26.1520017 132.874666,25.816 C133.178668,25.4799983 133.382666,25.1240019 133.486666,24.748 C133.590667,24.3719981 133.642666,24.0320015 133.642666,23.728 C133.642666,23.1039969 133.522668,22.5680022 133.282666,22.12 C133.042665,21.6719978 132.730668,21.3080014 132.346666,21.028 C131.962664,20.7479986 131.526669,20.5440006 131.038666,20.416 C130.550664,20.2879994 130.058669,20.224 129.562666,20.224 L125.698666,20.224 L125.698666,26.992 Z M148.877333,25.312 C148.877333,25.520001 148.885333,25.7719985 148.901333,26.068 C148.917333,26.3640015 148.929333,26.6639985 148.937333,26.968 C148.945333,27.2720015 148.957333,27.5559987 148.973333,27.82 C148.989333,28.0840013 148.997333,28.2879993 148.997333,28.432 L147.557333,28.432 C147.541333,28.0159979 147.529333,27.6160019 147.521333,27.232 C147.513333,26.8479981 147.493333,26.6000006 147.461333,26.488 L147.389333,26.488 C147.101332,27.096003 146.621336,27.6199978 145.949333,28.06 C145.27733,28.5000022 144.493337,28.72 143.597333,28.72 C142.733329,28.72 142.025336,28.5840014 141.473333,28.312 C140.92133,28.0399986 140.489335,27.6840022 140.177333,27.244 C139.865331,26.8039978 139.653334,26.2960029 139.541333,25.72 C139.429332,25.1439971 139.373333,24.552003 139.373333,23.944 L139.373333,17.344 L140.813333,17.344 L140.813333,23.872 C140.813333,24.3200022 140.853333,24.7559979 140.933333,25.18 C141.013333,25.6040021 141.153332,25.9839983 141.353333,26.32 C141.553334,26.6560017 141.833331,26.923999 142.193333,27.124 C142.553335,27.324001 143.02133,27.424 143.597333,27.424 C144.125336,27.424 144.625331,27.3320009 145.097333,27.148 C145.569335,26.9639991 145.977331,26.6840019 146.321333,26.308 C146.665335,25.9319981 146.937332,25.4600028 147.137333,24.892 C147.337334,24.3239972 147.437333,23.6560038 147.437333,22.888 L147.437333,17.344 L148.877333,17.344 L148.877333,25.312 Z M153.744,17.344 L155.184,17.344 L155.184,28.432 L153.744,28.432 L153.744,17.344 Z M153.384,12.952 C153.384,12.6479985 153.487999,12.392001 153.696,12.184 C153.904001,11.975999 154.159998,11.872 154.464,11.872 C154.768001,11.872 155.023999,11.975999 155.232,12.184 C155.440001,12.392001 155.544,12.6479985 155.544,12.952 C155.544,13.2560015 155.440001,13.511999 155.232,13.72 C155.023999,13.928001 154.768001,14.032 154.464,14.032 C154.159998,14.032 153.904001,13.928001 153.696,13.72 C153.487999,13.511999 153.384,13.2560015 153.384,12.952 L153.384,12.952 Z M160.170666,10.288 L161.610666,10.288 L161.610666,28.432 L160.170666,28.432 L160.170666,10.288 Z M176.053333,26.488 L176.005333,26.488 C175.781332,26.8720019 175.501335,27.2039986 175.165333,27.484 C174.829331,27.7640014 174.465335,27.9959991 174.073333,28.18 C173.681331,28.3640009 173.269335,28.4999996 172.837333,28.588 C172.405331,28.6760004 171.981335,28.72 171.565333,28.72 C170.717329,28.72 169.933336,28.5760014 169.213333,28.288 C168.493329,27.9999986 167.877335,27.5960026 167.365333,27.076 C166.85333,26.5559974 166.453334,25.9400036 166.165333,25.228 C165.877331,24.5159964 165.733333,23.7360042 165.733333,22.888 C165.733333,22.0399958 165.877331,21.2600036 166.165333,20.548 C166.453334,19.8359964 166.85333,19.2200026 167.365333,18.7 C167.877335,18.1799974 168.493329,17.7760014 169.213333,17.488 C169.933336,17.1999986 170.717329,17.056 171.565333,17.056 C171.981335,17.056 172.405331,17.0999996 172.837333,17.188 C173.269335,17.2760004 173.681331,17.4119991 174.073333,17.596 C174.465335,17.7800009 174.829331,18.0119986 175.165333,18.292 C175.501335,18.5720014 175.781332,18.9039981 176.005333,19.288 L176.053333,19.288 L176.053333,10.288 L177.493333,10.288 L177.493333,28.432 L176.053333,28.432 L176.053333,26.488 Z M176.197333,22.888 C176.197333,22.2639969 176.077334,21.6760028 175.837333,21.124 C175.597332,20.5719972 175.269335,20.092002 174.853333,19.684 C174.437331,19.275998 173.949336,18.9520012 173.389333,18.712 C172.82933,18.4719988 172.221336,18.352 171.565333,18.352 C170.89333,18.352 170.285336,18.4719988 169.741333,18.712 C169.19733,18.9520012 168.733335,19.275998 168.349333,19.684 C167.965331,20.092002 167.673334,20.5719972 167.473333,21.124 C167.273332,21.6760028 167.173333,22.2639969 167.173333,22.888 C167.173333,23.5120031 167.273332,24.0999972 167.473333,24.652 C167.673334,25.2040028 167.965331,25.683998 168.349333,26.092 C168.733335,26.500002 169.19733,26.8239988 169.741333,27.064 C170.285336,27.3040012 170.89333,27.424 171.565333,27.424 C172.221336,27.424 172.82933,27.3040012 173.389333,27.064 C173.949336,26.8239988 174.437331,26.500002 174.853333,26.092 C175.269335,25.683998 175.597332,25.2040028 175.837333,24.652 C176.077334,24.0999972 176.197333,23.5120031 176.197333,22.888 L176.197333,22.888 Z M191.48,26.344 C190.919997,27.1920042 190.228004,27.7999982 189.404,28.168 C188.579995,28.5360018 187.672004,28.72 186.68,28.72 C185.831995,28.72 185.064003,28.5760014 184.376,28.288 C183.687996,27.9999986 183.096002,27.5960026 182.6,27.076 C182.103997,26.5559974 181.724001,25.9400036 181.46,25.228 C181.195998,24.5159964 181.064,23.7280043 181.064,22.864 C181.064,22.0319958 181.199998,21.2640035 181.472,20.56 C181.744001,19.8559965 182.127997,19.2440026 182.624,18.724 C183.120002,18.2039974 183.703996,17.7960015 184.376,17.5 C185.048003,17.2039985 185.791995,17.056 186.608,17.056 C187.456004,17.056 188.203996,17.2039985 188.852,17.5 C189.500003,17.7960015 190.043997,18.1879976 190.484,18.676 C190.924002,19.1640024 191.255998,19.7199969 191.48,20.344 C191.704001,20.9680031 191.816,21.5999968 191.816,22.24 L191.816,23.248 L182.504,23.248 C182.504,23.5520015 182.563999,23.9399976 182.684,24.412 C182.804,24.8840024 183.023998,25.3439978 183.344,25.792 C183.664001,26.2400022 184.091997,26.6239984 184.628,26.944 C185.164002,27.2640016 185.855995,27.424 186.704,27.424 C187.440003,27.424 188.151996,27.2480018 188.84,26.896 C189.528003,26.5439982 190.055998,26.064003 190.424,25.456 L191.48,26.344 Z M190.376,21.952 C190.376,21.4559975 190.276001,20.9920022 190.076,20.56 C189.875999,20.1279978 189.604001,19.7480016 189.26,19.42 C188.915998,19.0919984 188.508002,18.832001 188.036,18.64 C187.563997,18.447999 187.064002,18.352 186.536,18.352 C185.751996,18.352 185.100002,18.5119984 184.58,18.832 C184.059997,19.1520016 183.648001,19.5199979 183.344,19.936 C183.039998,20.3520021 182.824,20.755998 182.696,21.148 C182.567999,21.540002 182.504,21.8079993 182.504,21.952 L190.376,21.952 Z M195.698666,20.464 C195.698666,20.255999 195.690666,20.0040015 195.674666,19.708 C195.658666,19.4119985 195.646666,19.1120015 195.638666,18.808 C195.630666,18.5039985 195.618666,18.2200013 195.602666,17.956 C195.586666,17.6919987 195.578666,17.4880007 195.578666,17.344 L197.018666,17.344 C197.034666,17.7600021 197.046666,18.1599981 197.054666,18.544 C197.062666,18.9280019 197.082666,19.1759994 197.114666,19.288 C197.482668,18.6319967 197.954663,18.0960021 198.530666,17.68 C199.106669,17.2639979 199.810662,17.056 200.642666,17.056 C200.786667,17.056 200.926665,17.0679999 201.062666,17.092 C201.198667,17.1160001 201.338665,17.1439998 201.482666,17.176 L201.314666,18.592 C201.122665,18.5279997 200.938667,18.496 200.762666,18.496 C200.138663,18.496 199.598668,18.595999 199.142666,18.796 C198.686664,18.996001 198.310668,19.2719982 198.014666,19.624 C197.718665,19.9760018 197.498667,20.3879976 197.354666,20.86 C197.210665,21.3320024 197.138666,21.8399973 197.138666,22.384 L197.138666,28.432 L195.698666,28.432 L195.698666,20.464 Z M212.079999,18.64 L209.775999,18.64 L209.775999,17.344 L212.079999,17.344 L212.079999,13.72 C212.079999,12.9999964 212.187998,12.4040024 212.403999,11.932 C212.62,11.4599976 212.887998,11.0800014 213.207999,10.792 C213.528001,10.5039986 213.883997,10.3000006 214.275999,10.18 C214.668001,10.0599994 215.039998,10 215.391999,10 C216.064003,10 216.615997,10.095999 217.047999,10.288 L216.759999,11.536 C216.439998,11.3759992 216.008002,11.296 215.463999,11.296 C214.167993,11.296 213.519999,12.2799902 213.519999,14.248 L213.519999,17.344 L216.111999,17.344 L216.111999,18.64 L213.519999,18.64 L213.519999,28.432 L212.079999,28.432 L212.079999,18.64 Z M218.410666,22.888 C218.410666,22.0399958 218.554665,21.2600036 218.842666,20.548 C219.130667,19.8359964 219.530663,19.2200026 220.042666,18.7 C220.554669,18.1799974 221.170662,17.7760014 221.890666,17.488 C222.61067,17.1999986 223.394662,17.056 224.242666,17.056 C225.09067,17.056 225.870662,17.1999986 226.582666,17.488 C227.29467,17.7760014 227.910663,18.1799974 228.430666,18.7 C228.950669,19.2200026 229.354665,19.8359964 229.642666,20.548 C229.930667,21.2600036 230.074666,22.0399958 230.074666,22.888 C230.074666,23.7360042 229.930667,24.5159964 229.642666,25.228 C229.354665,25.9400036 228.950669,26.5559974 228.430666,27.076 C227.910663,27.5960026 227.29467,27.9999986 226.582666,28.288 C225.870662,28.5760014 225.09067,28.72 224.242666,28.72 C223.394662,28.72 222.61067,28.5760014 221.890666,28.288 C221.170662,27.9999986 220.554669,27.5960026 220.042666,27.076 C219.530663,26.5559974 219.130667,25.9400036 218.842666,25.228 C218.554665,24.5159964 218.410666,23.7360042 218.410666,22.888 L218.410666,22.888 Z M219.850666,22.888 C219.850666,23.5120031 219.950665,24.0999972 220.150666,24.652 C220.350667,25.2040028 220.642664,25.683998 221.026666,26.092 C221.410668,26.500002 221.874663,26.8239988 222.418666,27.064 C222.962669,27.3040012 223.570663,27.424 224.242666,27.424 C224.914669,27.424 225.522663,27.3040012 226.066666,27.064 C226.610669,26.8239988 227.074664,26.500002 227.458666,26.092 C227.842668,25.683998 228.134665,25.2040028 228.334666,24.652 C228.534667,24.0999972 228.634666,23.5120031 228.634666,22.888 C228.634666,22.2639969 228.534667,21.6760028 228.334666,21.124 C228.134665,20.5719972 227.842668,20.092002 227.458666,19.684 C227.074664,19.275998 226.610669,18.9520012 226.066666,18.712 C225.522663,18.4719988 224.914669,18.352 224.242666,18.352 C223.570663,18.352 222.962669,18.4719988 222.418666,18.712 C221.874663,18.9520012 221.410668,19.275998 221.026666,19.684 C220.642664,20.092002 220.350667,20.5719972 220.150666,21.124 C219.950665,21.6760028 219.850666,22.2639969 219.850666,22.888 L219.850666,22.888 Z M233.957333,20.464 C233.957333,20.255999 233.949333,20.0040015 233.933333,19.708 C233.917333,19.4119985 233.905333,19.1120015 233.897333,18.808 C233.889333,18.5039985 233.877333,18.2200013 233.861333,17.956 C233.845333,17.6919987 233.837333,17.4880007 233.837333,17.344 L235.277333,17.344 C235.293333,17.7600021 235.305333,18.1599981 235.313333,18.544 C235.321333,18.9280019 235.341332,19.1759994 235.373333,19.288 C235.741334,18.6319967 236.21333,18.0960021 236.789333,17.68 C237.365336,17.2639979 238.069328,17.056 238.901333,17.056 C239.045333,17.056 239.185332,17.0679999 239.321333,17.092 C239.457333,17.1160001 239.597332,17.1439998 239.741333,17.176 L239.573333,18.592 C239.381332,18.5279997 239.197334,18.496 239.021333,18.496 C238.39733,18.496 237.857335,18.595999 237.401333,18.796 C236.94533,18.996001 236.569334,19.2719982 236.273333,19.624 C235.977331,19.9760018 235.757333,20.3879976 235.613333,20.86 C235.469332,21.3320024 235.397333,21.8399973 235.397333,22.384 L235.397333,28.432 L233.957333,28.432 L233.957333,20.464 Z M255.138666,11.44 L256.770666,11.44 L263.922666,28.432 L262.146666,28.432 L260.298666,23.92 L251.298666,23.92 L249.378666,28.432 L247.722666,28.432 L255.138666,11.44 Z M255.882666,13.168 L251.922666,22.48 L259.722666,22.48 L255.882666,13.168 Z M266.629333,20.464 C266.629333,20.255999 266.621333,20.0040015 266.605333,19.708 C266.589332,19.4119985 266.577333,19.1120015 266.569333,18.808 C266.561332,18.5039985 266.549333,18.2200013 266.533333,17.956 C266.517332,17.6919987 266.509333,17.4880007 266.509333,17.344 L267.949333,17.344 C267.965333,17.7600021 267.977332,18.1599981 267.985333,18.544 C267.993333,18.9280019 268.013332,19.1759994 268.045333,19.288 C268.413334,18.6319967 268.88533,18.0960021 269.461333,17.68 C270.037335,17.2639979 270.741328,17.056 271.573333,17.056 C271.717333,17.056 271.857332,17.0679999 271.993333,17.092 C272.129333,17.1160001 272.269332,17.1439998 272.413333,17.176 L272.245333,18.592 C272.053332,18.5279997 271.869333,18.496 271.693333,18.496 C271.069329,18.496 270.529335,18.595999 270.073333,18.796 C269.61733,18.996001 269.241334,19.2719982 268.945333,19.624 C268.649331,19.9760018 268.429333,20.3879976 268.285333,20.86 C268.141332,21.3320024 268.069333,21.8399973 268.069333,22.384 L268.069333,28.432 L266.629333,28.432 L266.629333,20.464 Z M284.143999,26.8 C283.599996,27.4560033 282.984003,27.9399984 282.295999,28.252 C281.607996,28.5640016 280.864003,28.72 280.063999,28.72 C279.215995,28.72 278.432003,28.5760014 277.711999,28.288 C276.991996,27.9999986 276.376002,27.5960026 275.863999,27.076 C275.351997,26.5559974 274.952001,25.9400036 274.663999,25.228 C274.375998,24.5159964 274.231999,23.7360042 274.231999,22.888 C274.231999,22.0399958 274.375998,21.2600036 274.663999,20.548 C274.952001,19.8359964 275.351997,19.2200026 275.863999,18.7 C276.376002,18.1799974 276.991996,17.7760014 277.711999,17.488 C278.432003,17.1999986 279.215995,17.056 280.063999,17.056 C280.880003,17.056 281.635996,17.2239983 282.331999,17.56 C283.028003,17.8960017 283.647996,18.367997 284.191999,18.976 L283.039999,19.84 C282.623997,19.3759977 282.168002,19.0120013 281.671999,18.748 C281.175997,18.4839987 280.640002,18.352 280.063999,18.352 C279.391996,18.352 278.784002,18.4719988 278.239999,18.712 C277.695996,18.9520012 277.232001,19.275998 276.847999,19.684 C276.463997,20.092002 276.172,20.5719972 275.971999,21.124 C275.771998,21.6760028 275.671999,22.2639969 275.671999,22.888 C275.671999,23.5120031 275.771998,24.0999972 275.971999,24.652 C276.172,25.2040028 276.463997,25.683998 276.847999,26.092 C277.232001,26.500002 277.695996,26.8239988 278.239999,27.064 C278.784002,27.3040012 279.391996,27.424 280.063999,27.424 C280.672002,27.424 281.227997,27.2840014 281.731999,27.004 C282.236002,26.7239986 282.671997,26.3520023 283.039999,25.888 L284.143999,26.8 Z M301.802666,18.928 L301.802666,27.304 C301.386664,27.5600013 300.914668,27.783999 300.386666,27.976 C299.858663,28.168001 299.310669,28.3319993 298.742666,28.468 C298.174663,28.6040007 297.598669,28.7039997 297.014666,28.768 C296.430663,28.8320003 295.882668,28.864 295.370666,28.864 C293.930659,28.864 292.646671,28.6240024 291.518666,28.144 C290.39066,27.6639976 289.43867,27.0160041 288.662666,26.2 C287.886662,25.3839959 287.294668,24.4360054 286.886666,23.356 C286.478664,22.2759946 286.274666,21.136006 286.274666,19.936 C286.274666,18.6719937 286.494664,17.4960054 286.934666,16.408 C287.374668,15.3199946 287.982662,14.376004 288.758666,13.576 C289.53467,12.775996 290.46666,12.1480023 291.554666,11.692 C292.642671,11.2359977 293.834659,11.008 295.130666,11.008 C296.698674,11.008 297.978661,11.203998 298.970666,11.596 C299.962671,11.988002 300.794662,12.5279966 301.466666,13.216 L299.834666,14.968 C299.130662,14.2959966 298.38667,13.8280013 297.602666,13.564 C296.818662,13.2999987 295.99467,13.168 295.130666,13.168 C294.154661,13.168 293.27467,13.3479982 292.490666,13.708 C291.706662,14.0680018 291.034669,14.551997 290.474666,15.16 C289.914663,15.768003 289.482667,16.4839959 289.178666,17.308 C288.874664,18.1320041 288.722666,19.0079954 288.722666,19.936 C288.722666,20.8960048 288.890664,21.7879959 289.226666,22.612 C289.562667,23.4360041 290.026663,24.151997 290.618666,24.76 C291.210669,25.368003 291.906662,25.8439983 292.706666,26.188 C293.50667,26.5320017 294.378661,26.704 295.322666,26.704 C296.13867,26.704 296.910662,26.6280008 297.638666,26.476 C298.366669,26.3239992 298.986663,26.1040014 299.498666,25.816 L299.498666,21.088 L295.730666,21.088 L295.730666,18.928 L301.802666,18.928 Z M306.669332,11.44 L308.973332,11.44 L308.973332,28.432 L306.669332,28.432 L306.669332,11.44 Z M314.511999,24.88 C314.928001,25.5040031 315.459996,25.9639985 316.107999,26.26 C316.756002,26.5560015 317.423996,26.704 318.111999,26.704 C318.496001,26.704 318.887997,26.6440006 319.287999,26.524 C319.688001,26.4039994 320.051997,26.2240012 320.379999,25.984 C320.708001,25.7439988 320.975998,25.4480018 321.183999,25.096 C321.392,24.7439982 321.495999,24.3360023 321.495999,23.872 C321.495999,23.2159967 321.288001,22.7160017 320.871999,22.372 C320.455997,22.0279983 319.940002,21.7400012 319.323999,21.508 C318.707996,21.2759988 318.036003,21.0520011 317.307999,20.836 C316.579995,20.6199989 315.908002,20.3200019 315.291999,19.936 C314.675996,19.5519981 314.160001,19.0360032 313.743999,18.388 C313.327997,17.7399968 313.119999,16.8640055 313.119999,15.76 C313.119999,15.2639975 313.227998,14.7360028 313.443999,14.176 C313.66,13.6159972 313.999997,13.1040023 314.463999,12.64 C314.928001,12.1759977 315.523995,11.7880016 316.251999,11.476 C316.980003,11.1639984 317.855994,11.008 318.879999,11.008 C319.808004,11.008 320.695995,11.1359987 321.543999,11.392 C322.392003,11.6480013 323.135996,12.1679961 323.775999,12.952 L321.903999,14.656 C321.615998,14.2079978 321.208002,13.8480014 320.679999,13.576 C320.151996,13.3039986 319.552002,13.168 318.879999,13.168 C318.239996,13.168 317.708001,13.2519992 317.283999,13.42 C316.859997,13.5880008 316.52,13.8039987 316.263999,14.068 C316.007998,14.3320013 315.828,14.6159985 315.723999,14.92 C315.619999,15.2240015 315.567999,15.5039987 315.567999,15.76 C315.567999,16.4800036 315.775997,17.0319981 316.191999,17.416 C316.608001,17.8000019 317.123996,18.1119988 317.739999,18.352 C318.356002,18.5920012 319.027995,18.807999 319.755999,19 C320.484003,19.192001 321.155996,19.4599983 321.771999,19.804 C322.388002,20.1480017 322.903997,20.6119971 323.319999,21.196 C323.736001,21.7800029 323.943999,22.5839949 323.943999,23.608 C323.943999,24.4240041 323.788001,25.1599967 323.475999,25.816 C323.163997,26.4720033 322.744002,27.0239978 322.215999,27.472 C321.687996,27.9200022 321.064003,28.2639988 320.343999,28.504 C319.623995,28.7440012 318.856003,28.864 318.039999,28.864 C316.951994,28.864 315.920004,28.6720019 314.943999,28.288 C313.967994,27.9039981 313.192002,27.312004 312.615999,26.512 L314.511999,24.88 Z" id="Web-AppBuilder-for-A"></path>
                <g id="Group-3" transform="translate(326.000000, 10.000000)">
                    <path d="M1.5819209,1.84180791 L2.10922787,1.84180791 C2.23979977,1.84180791 2.34588785,1.82548667 2.42749529,1.79284369 C2.50910273,1.76020072 2.57250448,1.72002535 2.61770245,1.67231638 C2.66290041,1.62460742 2.69365968,1.57313273 2.70998117,1.51789077 C2.72630266,1.46264881 2.73446328,1.4124296 2.73446328,1.36723164 C2.73446328,1.32203367 2.72630266,1.27181446 2.70998117,1.2165725 C2.69365968,1.16133055 2.66290041,1.10985586 2.61770245,1.06214689 C2.57250448,1.01443793 2.50910273,0.974262561 2.42749529,0.941619586 C2.34588785,0.90897661 2.23979977,0.892655367 2.10922787,0.892655367 L1.5819209,0.892655367 L1.5819209,1.84180791 Z M1.33333333,0.666666667 L2.03389831,0.666666667 C2.06905228,0.666666667 2.11676053,0.667922147 2.17702448,0.670433145 C2.23728844,0.672944143 2.30257341,0.680477024 2.37288136,0.693032015 C2.4431893,0.705587006 2.51475168,0.725674689 2.58757062,0.753295669 C2.66038957,0.780916648 2.72567454,0.821092015 2.7834275,0.873822976 C2.84118045,0.926553936 2.8888887,0.993094388 2.92655367,1.07344633 C2.96421864,1.15379827 2.98305085,1.25172573 2.98305085,1.36723164 C2.98305085,1.49529254 2.96107994,1.60075288 2.91713748,1.68361582 C2.87319501,1.76647876 2.81795388,1.83364695 2.75141243,1.88512241 C2.68487098,1.93659787 2.61142539,1.97489002 2.53107345,2 C2.45072151,2.02510998 2.37413721,2.0426867 2.30131827,2.0527307 L3.07721281,3.33333333 L2.79472693,3.33333333 L2.04519774,2.06779661 L1.5819209,2.06779661 L1.5819209,3.33333333 L1.33333333,3.33333333 L1.33333333,0.666666667 Z" id="R"></path>
                    <path d="M2,3.875 C3.03553391,3.875 3.875,3.03553391 3.875,2 C3.875,0.964466094 3.03553391,0.125 2,0.125 C0.964466094,0.125 0.125,0.964466094 0.125,2 C0.125,3.03553391 0.964466094,3.875 2,3.875 L2,3.875 Z M2,4 L2,4 C0.8954305,4 0,3.1045695 0,2 C0,0.8954305 0.8954305,0 2,0 C3.1045695,0 4,0.8954305 4,2 C4,3.1045695 3.1045695,4 2,4 L2,4 Z" id="Oval-1"></path>
                </g>
            </g>
        </g>
    </g>
</svg>