<svg xmlns="http://www.w3.org/2000/svg" viewBox="0 0 120 165"><defs><style>.cls-1{fill:#e57e25;}.cls-2{fill-opacity:0.31;}.cls-3{font-size:26px;font-family:Avenir-Medium, Avenir;letter-spacing:0.02em;}.cls-3,.cls-4{fill:#fff;}</style></defs><title>zip</title><g id="zip"><path class="cls-1" d="M80.15,0H6A6,6,0,0,0,0,6V159a6,6,0,0,0,6,6H114a6,6,0,0,0,6-6V39.85Z"/><polygon class="cls-2" points="80.08 0 80 0 80 40 120 40 120 39.92 80.08 0"/><text class="cls-3" transform="translate(16.08 105.29)">SHAPE<tspan x="0" y="31.2">FILE</tspan></text><path class="cls-4" d="M68,11.5v-6H62v-6H52v6h6v6H52v6h6v6H52v6h6v5H54L52,46.62V59.5H68V46.62L66,34.5H62v-11h6v-6H62v-6Zm-4,37v8H56v-8Z"/></g></svg>